<svg id="v6" xmlns="http://www.w3.org/2000/svg" xmlns:xlink="http://www.w3.org/1999/xlink" viewBox="0 0 512 512">
  <defs>
    <radialGradient id="radial-gradient" cx="336.92" cy="323.77" fx="134.1248738110061" fy="122.35251009861543" r="296.87" gradientUnits="userSpaceOnUse">
      <stop offset="0" stop-opacity="0.15"/>
      <stop offset="0.45" stop-opacity="0.15"/>
      <stop offset="0.8" stop-color="#231f20" stop-opacity="0.02"/>
      <stop offset="1" stop-opacity="0"/>
    </radialGradient>
    <clipPath id="clip-path">
      <path id="Clip_to_magnifying_glass" data-name="Clip to magnifying glass" d="M462.37,155.35a79.22,79.22,0,0,1-20.22,50.71l37.75,39a4.76,4.76,0,0,1-.22,6.72l-3.13,2.94a4.75,4.75,0,0,1-6.71-.22l-37.75-39a79.43,79.43,0,1,1-35-140.59A228.51,228.51,0,0,0,256,26.44C129.22,26.44,26.44,129.22,26.44,256S129.22,485.56,256,485.56,485.56,382.78,485.56,256A228.64,228.64,0,0,0,462.37,155.35Z" fill="none"/>
    </clipPath>
    <radialGradient id="radial-gradient-2" cx="260.29" cy="257.15" fx="239.36791261578597" fy="234.159241460425" r="227.8" gradientUnits="userSpaceOnUse">
      <stop offset="0" stop-color="#eee" stop-opacity="0.16"/>
      <stop offset="0.51" stop-color="#fafafa" stop-opacity="0.1"/>
      <stop offset="1" stop-color="#fff" stop-opacity="0.08"/>
    </radialGradient>
    <radialGradient id="radial-gradient-3" cx="383.99" cy="153.06" fx="365.7954224978475" fy="167.86204207335214" r="75.51" gradientUnits="userSpaceOnUse">
      <stop offset="0" stop-color="#f5f5f5" stop-opacity="0.5"/>
      <stop offset="0.13" stop-color="#f6f6f6" stop-opacity="0.48"/>
      <stop offset="0.3" stop-color="#f7f7f7" stop-opacity="0.41"/>
      <stop offset="0.48" stop-color="#fafafa" stop-opacity="0.3"/>
      <stop offset="0.69" stop-color="#fefefe" stop-opacity="0.14"/>
      <stop offset="0.74" stop-color="#fff" stop-opacity="0.1"/>
      <stop offset="0.93" stop-color="#4d4d4d" stop-opacity="0.13"/>
      <stop offset="1" stop-opacity="0.15"/>
    </radialGradient>
  </defs>
  <circle id="Background_Dark" data-name="Background Dark" cx="256" cy="256" r="250.21" fill="#263238"/>
  <g id="Pieces_with_Shadow" data-name="Pieces with Shadow">
    <polygon id="Shadow" points="414.97 118.87 563.42 239.43 563.42 560.19 218.94 560.19 110.42 425.67 167.63 407.89 177.24 87.36 192.94 89.94 204.89 105.28 210.81 107.82 292.89 208.54 323.09 210.47 279.4 117.23 285.45 118.31 323 153.09 355.6 118.16 380.52 143.18 414.97 118.87" fill="url(#radial-gradient)"/>
    <g clip-path="url(#clip-path)">
      <g id="King_Queen" data-name="King &amp; Queen">
        <g id="pieces">
          <g>
            <polygon points="207.12 236.76 147.35 236.76 142.47 290.54 212 290.54 207.12 236.76" fill="#f9eab0"/>
            <polygon points="135.4 369.98 219.07 369.98 215.27 326.4 139.2 326.4 135.4 369.98" fill="#f9eab0"/>
            <polygon points="141.38 302.49 140.29 314.44 214.18 314.44 213.09 302.49 141.38 302.49" fill="#fbd490"/>
            <polygon points="139.2 326.4 215.27 326.4 214.18 314.44 140.29 314.44 139.2 326.4" fill="#d6c990"/>
            <polygon points="212 290.54 142.47 290.54 141.38 302.49 213.09 302.49 212 290.54" fill="#d6c990"/>
            <path d="M374.44,206.88H302.73a12,12,0,0,1-12-12h0a12,12,0,0,1,12-11.95h71.71a12,12,0,0,1,12,11.95h0A12,12,0,0,1,374.44,206.88Z" fill="#38454f"/>
            <path d="M204.89,105.28h-9.73V95.55a8.19,8.19,0,0,0-8.2-8.19H167.51a8.19,8.19,0,0,0-8.2,8.19v9.73h-9.73a8.2,8.2,0,0,0-8.2,8.2V127a8.2,8.2,0,0,0,8.2,8.2h9.73v17.93h35.85V135.16h9.73a8.2,8.2,0,0,0,8.2-8.2V113.48A8.2,8.2,0,0,0,204.89,105.28Z" fill="#fbd490"/>
            <path d="M213.09,206.88H141.38l-9.55-42.95a8.91,8.91,0,0,1,8.69-10.84H214a8.9,8.9,0,0,1,8.68,10.84Z" fill="#f9eab0"/>
            <polygon points="380.42 369.98 296.75 369.98 308.71 236.76 368.47 236.76 380.42 369.98" fill="#38454f"/>
            <path d="M374.44,404.08H302.73a17.92,17.92,0,0,1-17.93-17.92h0a17.93,17.93,0,0,1,17.93-17.93h71.71a17.92,17.92,0,0,1,17.93,17.93h0A17.92,17.92,0,0,1,374.44,404.08Z" fill="#546a79"/>
            <path d="M398.35,428H278.83A11.94,11.94,0,0,1,266.88,416h0a12,12,0,0,1,11.95-12H398.35a12,12,0,0,1,11.95,12h0A12,12,0,0,1,398.35,428Z" fill="#38454f"/>
            <path d="M377.43,236.76H299.74a14.94,14.94,0,0,1-14.94-14.94h0a14.94,14.94,0,0,1,14.94-14.94h77.69a14.94,14.94,0,0,1,14.94,14.94h0A14.94,14.94,0,0,1,377.43,236.76Z" fill="#546a79"/>
            <path d="M216.08,236.76H138.39a14.94,14.94,0,0,1-14.94-14.94h0a14.94,14.94,0,0,1,14.94-14.94h77.69A14.94,14.94,0,0,1,231,221.82h0A14.94,14.94,0,0,1,216.08,236.76Z" fill="#fbd490"/>
            <path d="M213.09,404.08H141.38a17.92,17.92,0,0,1-17.93-17.92h0a17.93,17.93,0,0,1,17.93-17.93h71.71A17.93,17.93,0,0,1,231,386.16h0A17.92,17.92,0,0,1,213.09,404.08Z" fill="#fbd490"/>
            <path d="M237,428H117.47a12,12,0,0,1-12-11.95h0a12,12,0,0,1,12-12H237A12,12,0,0,1,249,416h0A12,12,0,0,1,237,428Z" fill="#f9eab0"/>
            <path d="M393.63,117.24a2.25,2.25,0,0,0-1.91,1.07l-16.35,27.26a3.18,3.18,0,0,1-2.73,1.55H354.42a3.18,3.18,0,0,1-3.12-3.82L356,119.9a2.22,2.22,0,0,0-2.18-2.66H323.37a2.22,2.22,0,0,0-2.18,2.65l4.68,23.42a3.18,3.18,0,0,1-3.12,3.81H304.54a3.18,3.18,0,0,1-2.73-1.55l-16.36-27.26a2.23,2.23,0,0,0-1.91-1.07H264.35a2.22,2.22,0,0,0-2,3.14l27.86,61.29a2.22,2.22,0,0,0,2,1.3H385a2.23,2.23,0,0,0,2-1.3l27.86-61.29a2.22,2.22,0,0,0-2-3.14Z" fill="#546a79"/>
          </g>
        </g>
        <g id="brighten">
          <g opacity="0.81">
            <path d="M212,290.54H142.47l4.88-53.78h59.76ZM135.4,370h83.67l-3.8-43.58H139.2Zm6-67.49-1.09,11.95h73.89l-1.09-11.95ZM139.2,326.4h76.07l-1.09-12H140.29ZM212,290.54H142.47l-1.09,11.95h71.71Zm174.4-95.62h0a12,12,0,0,0-12-11.95H302.73a12,12,0,0,0-12,11.95h0a12,12,0,0,0,12,12h71.71A12,12,0,0,0,386.4,194.92ZM204.89,105.28h-9.73V95.55a8.19,8.19,0,0,0-8.2-8.19H167.51a8.19,8.19,0,0,0-8.2,8.19v9.73h-9.73a8.2,8.2,0,0,0-8.2,8.2V127a8.2,8.2,0,0,0,8.2,8.2h9.73v17.93h35.85V135.16h9.73a8.2,8.2,0,0,0,8.2-8.2V113.48A8.2,8.2,0,0,0,204.89,105.28Zm17.74,58.65A8.9,8.9,0,0,0,214,153.09H140.52a8.91,8.91,0,0,0-8.69,10.84l9.55,42.95h71.71Zm145.84,72.83H308.71L296.76,370h83.66Zm23.9,149.4h0a17.92,17.92,0,0,0-17.93-17.93H302.73a17.93,17.93,0,0,0-17.93,17.93h0a17.92,17.92,0,0,0,17.93,17.92h71.71A17.92,17.92,0,0,0,392.37,386.16ZM410.3,416h0a12,12,0,0,0-11.95-12H278.83a12,12,0,0,0-11.95,12h0A11.94,11.94,0,0,0,278.83,428H398.35A12,12,0,0,0,410.3,416ZM392.37,221.82h0a14.94,14.94,0,0,0-14.94-14.94H299.74a14.94,14.94,0,0,0-14.94,14.94h0a14.94,14.94,0,0,0,14.94,14.94h77.69A14.94,14.94,0,0,0,392.37,221.82Zm-161.35,0h0a14.94,14.94,0,0,0-14.94-14.94H138.39a14.94,14.94,0,0,0-14.94,14.94h0a14.94,14.94,0,0,0,14.94,14.94h77.69A14.94,14.94,0,0,0,231,221.82Zm0,164.34h0a17.93,17.93,0,0,0-17.93-17.93H141.38a17.93,17.93,0,0,0-17.93,17.93h0a17.92,17.92,0,0,0,17.93,17.92h71.71A17.92,17.92,0,0,0,231,386.16ZM249,416h0a12,12,0,0,0-11.95-12H117.47a12,12,0,0,0-12,12h0a12,12,0,0,0,12,11.95H237A12,12,0,0,0,249,416Zm144.68-298.8a2.25,2.25,0,0,0-1.91,1.07l-16.35,27.26a3.18,3.18,0,0,1-2.73,1.55H354.42a3.18,3.18,0,0,1-3.12-3.82L356,119.9a2.22,2.22,0,0,0-2.18-2.66H323.37a2.22,2.22,0,0,0-2.18,2.65l4.68,23.42a3.18,3.18,0,0,1-3.12,3.81H304.54a3.18,3.18,0,0,1-2.73-1.55l-16.36-27.26a2.23,2.23,0,0,0-1.91-1.07H264.35a2.22,2.22,0,0,0-2,3.14l27.86,61.29a2.22,2.22,0,0,0,2,1.3H385a2.23,2.23,0,0,0,2-1.3l27.86-61.29a2.22,2.22,0,0,0-2-3.14Z" fill="url(#radial-gradient-2)"/>
          </g>
        </g>
      </g>
    </g>
  </g>
  <g id="Warped_Crown" data-name="Warped Crown">
    <g id="Distorted_Crown" data-name="Distorted Crown">
      <g>
        <path d="M334.21,209.88q23.75.75,47.48.74c7.31,0,13.39-5.5,13.49-12.55s-6-13-13.52-13q-33.59-.12-67.09-1.56A67.55,67.55,0,0,0,334.21,209.88Z" fill="#38454f"/>
        <path d="M382.75,226.41a89.76,89.76,0,0,0,18.35-2c-.22-7.42-7.25-13.83-16.09-13.83h-3.32q-23.76,0-47.48-.74A77.76,77.76,0,0,0,382.75,226.41Z" fill="#546a79"/>
        <path d="M424.58,110.79c-8.31-.29-12.53-.47-21.18-.54a2.48,2.48,0,0,0-2.12,1.16q-9.3,15.35-18.56,30.69a3.7,3.7,0,0,1-3.17,1.79c-8.44,0-12.67,0-21,.05a3.59,3.59,0,0,1-3.51-4.36c2.17-10.74,3.32-16.12,5.63-26.41a2.36,2.36,0,0,0-2.39-2.88q-16.46.43-32.9,1.09a2.58,2.58,0,0,0-2.34,3c1.65,10,2.52,15.17,4.43,25.58a3.55,3.55,0,0,1-3.22,4.29c-6.45.08-9.57.12-15.46.22-.23,2.53-.32,5.12-.34,7.69-.11,10,2,22.06,6.09,31.34q33.56,1.46,67.09,1.56c4.82,0,7.23,0,12,0a2.59,2.59,0,0,0,2.33-1.46q16.05-34.37,30.85-69.27A2.57,2.57,0,0,0,424.58,110.79Z" fill="#546a79"/>
      </g>
      <path d="M457,152.14c0,42-32.25,74.27-74.28,74.27s-74.27-32.24-74.27-74.27,32.25-74.28,74.27-74.28S457,110.12,457,152.14Z" fill="none"/>
    </g>
  </g>
  <path id="Magnifying_Glass" data-name="Magnifying Glass" d="M479.9,245l-37.75-39a79.45,79.45,0,1,0-10.06,9.43l37.75,39a4.75,4.75,0,0,0,6.71.22l3.13-2.94A4.76,4.76,0,0,0,479.9,245ZM330.77,202A71.59,71.59,0,1,1,432,205.28,71.59,71.59,0,0,1,330.77,202Z" fill="#fff"/>
  <circle id="Magnifying_Glass_Glow" data-name="Magnifying Glass Glow" cx="383.99" cy="153.06" r="75.51" fill-opacity="0.25" fill="url(#radial-gradient-3)"/>
</svg>
